<svg data-v-423bf9ae="" xmlns="http://www.w3.org/2000/svg" viewBox="0 0 690 107" class="iconLeft"><!----><!----><!----><g data-v-423bf9ae="" id="e5ddd7c9-2c4c-4bbd-9ea2-e9dfc9615591" fill="#ffffff" transform="matrix(5.212858280353729,0,0,5.212858280353729,99.18080666171483,3.2911418075990326)"><path d="M6.52 12.63L0.59 12.63L0.59 12.33L0.59 12.33Q1.34 12.33 1.47 12.05L1.47 12.05L1.47 5.01L1.47 5.01Q1.34 4.73 0.59 4.73L0.59 4.73L0.59 4.44L6.23 4.44L6.23 5.80L5.94 5.80L5.94 5.80Q5.94 5.04 5.66 4.91L5.66 4.91L2.76 4.91L2.76 8.13L4.72 8.13L4.72 8.13Q5.00 8.01 5.00 7.25L5.00 7.25L5.29 7.25L5.29 9.49L5.00 9.49L5.00 9.49Q5.00 8.74 4.72 8.61L4.72 8.61L2.76 8.61L2.76 12.15L5.95 12.15L5.95 12.15Q6.30 12.00 6.58 11.27L6.58 11.27L6.86 11.27L6.52 12.63ZM10.43 15.32L7.41 15.32L7.41 15.02L7.41 15.02Q8.16 15.02 8.29 14.74L8.29 14.74L8.29 7.32L8.29 7.32Q8.29 7.32 7.41 7.25L7.41 7.25L7.41 6.93L7.41 6.93Q7.67 6.93 8.45 6.63L8.45 6.63L8.45 6.63Q9.23 6.33 9.55 6.33L9.55 6.33L9.55 6.79L9.55 6.79Q10.22 6.33 11.23 6.33L11.23 6.33L11.23 6.33Q11.69 6.33 12.14 6.49L12.14 6.49L12.14 6.49Q12.60 6.65 13.05 6.99L13.05 6.99L13.05 6.99Q13.51 7.34 13.80 8.01L13.80 8.01L13.80 8.01Q14.08 8.68 14.08 9.58L14.08 9.58L14.08 9.58Q14.08 11.13 13.22 11.95L13.22 11.95L13.22 11.95Q12.35 12.77 10.92 12.77L10.92 12.77L10.92 12.77Q10.11 12.77 9.55 12.46L9.55 12.46L9.55 14.74L9.55 14.74Q9.67 15.02 10.43 15.02L10.43 15.02L10.43 15.32ZM9.55 7.25L9.55 12.01L9.55 12.01Q10.08 12.29 10.84 12.29L10.84 12.29L10.84 12.29Q11.61 12.29 12.18 11.58L12.18 11.58L12.18 11.58Q12.75 10.86 12.75 9.58L12.75 9.58L12.75 9.58Q12.75 8.72 12.26 7.76L12.26 7.76L12.26 7.76Q11.76 6.80 11.09 6.80L11.09 6.80L11.09 6.80Q10.12 6.80 9.55 7.25L9.55 7.25ZM18.09 12.63L15.06 12.63L15.06 12.33L15.06 12.33Q15.82 12.33 15.95 12.05L15.95 12.05L15.95 7.32L15.95 7.32Q15.08 7.25 15.06 7.25L15.06 7.25L15.06 6.93L15.06 6.93Q15.33 6.93 16.11 6.63L16.11 6.63L16.11 6.63Q16.88 6.33 17.21 6.33L17.21 6.33L17.21 12.05L17.21 12.05Q17.33 12.33 18.09 12.33L18.09 12.33L18.09 12.63ZM16.53 5.43L16.53 5.43L16.53 5.43Q16.23 5.43 15.99 5.20L15.99 5.20L15.99 5.20Q15.76 4.97 15.76 4.61L15.76 4.61L15.76 4.61Q15.76 4.28 15.97 4.05L15.97 4.05L15.97 4.05Q16.17 3.81 16.49 3.81L16.49 3.81L16.49 3.81Q16.80 3.81 17.04 4.05L17.04 4.05L17.04 4.05Q17.28 4.28 17.28 4.65L17.28 4.65L17.28 4.65Q17.28 4.97 17.07 5.20L17.07 5.20L17.07 5.20Q16.86 5.43 16.53 5.43ZM22.12 6.75L22.12 6.75L22.12 6.75Q21.25 6.75 20.72 7.41L20.72 7.41L20.72 7.41Q20.19 8.06 20.19 9.18L20.19 9.18L20.19 9.18Q20.19 10.37 20.85 11.30L20.85 11.30L20.85 11.30Q21.52 12.24 22.36 12.24L22.36 12.24L22.36 12.24Q23.58 12.24 24.32 11.31L24.32 11.31L24.65 11.48L24.65 11.48Q24.25 12.15 23.60 12.46L23.60 12.46L23.60 12.46Q22.95 12.77 21.88 12.77L21.88 12.77L21.88 12.77Q21.35 12.77 20.86 12.61L20.86 12.61L20.86 12.61Q20.37 12.45 19.89 12.07L19.89 12.07L19.89 12.07Q19.42 11.70 19.14 10.98L19.14 10.98L19.14 10.98Q18.86 10.25 18.86 9.24L18.86 9.24L18.86 9.24Q18.86 8.02 19.72 7.17L19.72 7.17L19.72 7.17Q20.58 6.33 21.98 6.33L21.98 6.33L21.98 6.33Q23.09 6.33 23.69 6.71L23.69 6.71L23.69 6.71Q24.29 7.08 24.29 7.81L24.29 7.81L24.29 7.81Q24.29 8.13 24.12 8.32L24.12 8.32L24.12 8.32Q23.95 8.51 23.69 8.51L23.69 8.51L23.69 8.51Q23.44 8.51 23.25 8.39L23.25 8.39L23.25 8.39Q23.06 8.26 23.06 8.02L23.06 8.02L23.06 8.02Q23.06 7.73 23.20 7.59L23.20 7.59L23.20 7.59Q23.35 7.45 23.55 7.45L23.55 7.45L23.55 7.45Q23.37 6.75 22.12 6.75ZM31.21 12.63L28.97 12.63L28.97 12.33L28.97 12.33Q29.72 12.33 29.85 12.05L29.85 12.05L29.85 5.01L29.85 5.01Q29.72 4.73 28.97 4.73L28.97 4.73L28.97 4.44L30.84 4.44L35.48 10.16L35.48 5.01L35.48 5.01Q35.35 4.73 34.59 4.73L34.59 4.73L34.59 4.44L36.83 4.44L36.83 4.73L36.83 4.73Q36.08 4.73 35.95 5.01L35.95 5.01L35.95 12.63L35.83 12.63L30.32 5.67L30.32 12.05L30.32 12.05Q30.45 12.33 31.21 12.33L31.21 12.33L31.21 12.63ZM38.67 7.50L38.67 7.50L38.67 7.50Q38.86 7.50 39.01 7.64L39.01 7.64L39.01 7.64Q39.16 7.78 39.16 8.08L39.16 8.08L39.16 8.08Q39.16 8.32 38.97 8.44L38.97 8.44L38.97 8.44Q38.78 8.57 38.53 8.57L38.53 8.57L38.53 8.57Q38.26 8.57 38.09 8.38L38.09 8.38L38.09 8.38Q37.93 8.19 37.93 7.87L37.93 7.87L37.93 7.87Q37.93 7.14 38.53 6.73L38.53 6.73L38.53 6.73Q39.13 6.33 40.24 6.33L40.24 6.33L40.24 6.33Q41.54 6.33 42.15 6.97L42.15 6.97L42.15 6.97Q42.76 7.62 42.76 8.68L42.76 8.68L42.76 11.45L42.76 11.45Q42.76 11.90 42.90 12.11L42.90 12.11L42.90 12.11Q43.05 12.32 43.26 12.32L43.26 12.32L43.26 12.32Q43.44 12.32 43.59 12.22L43.59 12.22L43.59 12.22Q43.74 12.12 43.74 11.98L43.74 11.98L43.99 11.98L43.99 11.98Q43.99 12.38 43.70 12.56L43.70 12.56L43.70 12.56Q43.41 12.74 42.70 12.74L42.70 12.74L42.70 12.74Q42 12.74 41.71 12.17L41.71 12.17L41.71 12.17Q40.88 12.77 39.65 12.77L39.65 12.77L39.65 12.77Q37.55 12.77 37.55 11.06L37.55 11.06L37.55 11.06Q37.55 10.70 37.81 10.40L37.81 10.40L37.81 10.40Q38.07 10.11 38.56 9.91L38.56 9.91L38.56 9.91Q39.05 9.72 39.48 9.60L39.48 9.60L39.48 9.60Q39.91 9.48 40.56 9.33L40.56 9.33L40.56 9.33Q41.22 9.18 41.50 9.10L41.50 9.10L41.50 9.10Q41.50 7.92 41.19 7.38L41.19 7.38L41.19 7.38Q40.88 6.83 40.10 6.83L40.10 6.83L40.10 6.83Q38.84 6.83 38.67 7.50ZM41.58 11.82L41.58 11.82L41.58 11.82Q41.50 11.51 41.50 11.06L41.50 11.06L41.50 9.41L41.50 9.41Q41.34 9.46 40.97 9.56L40.97 9.56L40.97 9.56Q40.60 9.66 40.37 9.73L40.37 9.73L40.37 9.73Q40.14 9.80 39.82 9.94L39.82 9.94L39.82 9.94Q39.49 10.08 39.31 10.22L39.31 10.22L39.31 10.22Q39.13 10.36 38.99 10.59L38.99 10.59L38.99 10.59Q38.85 10.82 38.85 11.09L38.85 11.09L38.85 11.09Q38.85 11.76 39.11 12.03L39.11 12.03L39.11 12.03Q39.37 12.29 39.89 12.29L39.89 12.29L39.89 12.29Q40.81 12.29 41.58 11.82ZM45.78 4.44L46.38 4.44L46.38 6.47L47.59 6.47L47.59 6.89L46.38 6.89L46.38 11.34L46.38 11.34Q46.38 11.77 46.54 12.01L46.54 12.01L46.54 12.01Q46.69 12.24 47.11 12.24L47.11 12.24L47.11 12.24Q47.36 12.24 47.62 11.99L47.62 11.99L47.62 11.99Q47.88 11.75 47.98 11.31L47.98 11.31L48.31 11.48L48.31 11.48Q48.02 12.77 46.63 12.77L46.63 12.77L46.63 12.77Q45.04 12.77 45.04 11.23L45.04 11.23L45.04 6.89L44.06 6.89L44.06 6.47L44.06 6.47Q44.72 6.47 45.25 5.92L45.25 5.92L45.25 5.92Q45.78 5.38 45.78 4.44L45.78 4.44ZM51.98 12.63L48.96 12.63L48.96 12.33L48.96 12.33Q49.71 12.33 49.84 12.05L49.84 12.05L49.84 7.32L49.84 7.32Q48.97 7.25 48.96 7.25L48.96 7.25L48.96 6.93L48.96 6.93Q49.22 6.93 50.00 6.63L50.00 6.63L50.00 6.63Q50.78 6.33 51.10 6.33L51.10 6.33L51.10 12.05L51.10 12.05Q51.23 12.33 51.98 12.33L51.98 12.33L51.98 12.63ZM50.43 5.43L50.43 5.43L50.43 5.43Q50.12 5.43 49.89 5.20L49.89 5.20L49.89 5.20Q49.66 4.97 49.66 4.61L49.66 4.61L49.66 4.61Q49.66 4.28 49.86 4.05L49.86 4.05L49.86 4.05Q50.06 3.81 50.39 3.81L50.39 3.81L50.39 3.81Q50.69 3.81 50.93 4.05L50.93 4.05L50.93 4.05Q51.17 4.28 51.17 4.65L51.17 4.65L51.17 4.65Q51.17 4.97 50.96 5.20L50.96 5.20L50.96 5.20Q50.75 5.43 50.43 5.43ZM54.10 9.16L54.10 9.16L54.10 9.16Q54.10 10.75 54.71 11.55L54.71 11.55L54.71 11.55Q55.31 12.35 56.27 12.35L56.27 12.35L56.27 12.35Q57.02 12.35 57.48 11.67L57.48 11.67L57.48 11.67Q57.95 10.99 57.95 9.93L57.95 9.93L57.95 9.93Q57.95 6.76 55.75 6.76L55.75 6.76L55.75 6.76Q55.01 6.76 54.55 7.47L54.55 7.47L54.55 7.47Q54.10 8.18 54.10 9.16ZM56.08 12.77L56.08 12.77L56.08 12.77Q54.52 12.77 53.63 11.85L53.63 11.85L53.63 11.85Q52.75 10.93 52.75 9.44L52.75 9.44L52.75 9.44Q52.75 8.08 53.55 7.20L53.55 7.20L53.55 7.20Q54.35 6.33 55.99 6.33L55.99 6.33L55.99 6.33Q57.64 6.33 58.46 7.20L58.46 7.20L58.46 7.20Q59.29 8.08 59.29 9.60L59.29 9.60L59.29 9.60Q59.29 10.96 58.50 11.87L58.50 11.87L58.50 11.87Q57.71 12.77 56.08 12.77ZM63.29 12.63L60.27 12.63L60.27 12.33L60.27 12.33Q61.03 12.33 61.15 12.05L61.15 12.05L61.15 7.32L61.15 7.32Q60.28 7.25 60.27 7.25L60.27 7.25L60.27 6.93L60.27 6.93Q60.54 6.93 61.31 6.63L61.31 6.63L61.31 6.63Q62.09 6.33 62.41 6.33L62.41 6.33L62.41 6.97L62.41 6.97Q63.17 6.33 64.08 6.33L64.08 6.33L64.08 6.33Q65.38 6.33 65.96 6.81L65.96 6.81L65.96 6.81Q66.54 7.29 66.54 8.32L66.54 8.32L66.54 12.05L66.54 12.05Q66.67 12.33 67.42 12.33L67.42 12.33L67.42 12.63L64.40 12.63L64.40 12.33L64.40 12.33Q65.16 12.33 65.28 12.05L65.28 12.05L65.28 8.22L65.28 8.22Q65.28 6.80 63.99 6.80L63.99 6.80L63.99 6.80Q63.11 6.80 62.41 7.42L62.41 7.42L62.41 12.05L62.41 12.05Q62.54 12.33 63.29 12.33L63.29 12.33L63.29 12.63ZM69.23 7.50L69.23 7.50L69.23 7.50Q69.43 7.50 69.57 7.64L69.57 7.64L69.57 7.64Q69.72 7.78 69.72 8.08L69.72 8.08L69.72 8.08Q69.72 8.32 69.53 8.44L69.53 8.44L69.53 8.44Q69.34 8.57 69.09 8.57L69.09 8.57L69.09 8.57Q68.82 8.57 68.66 8.38L68.66 8.38L68.66 8.38Q68.49 8.19 68.49 7.87L68.49 7.87L68.49 7.87Q68.49 7.14 69.09 6.73L69.09 6.73L69.09 6.73Q69.69 6.33 70.80 6.33L70.80 6.33L70.80 6.33Q72.10 6.33 72.71 6.97L72.71 6.97L72.71 6.97Q73.32 7.62 73.32 8.68L73.32 8.68L73.32 11.45L73.32 11.45Q73.32 11.90 73.47 12.11L73.47 12.11L73.47 12.11Q73.61 12.32 73.82 12.32L73.82 12.32L73.82 12.32Q74.00 12.32 74.15 12.22L74.15 12.22L74.15 12.22Q74.30 12.12 74.30 11.98L74.30 11.98L74.55 11.98L74.55 11.98Q74.55 12.38 74.26 12.56L74.26 12.56L74.26 12.56Q73.98 12.74 73.26 12.74L73.26 12.74L73.26 12.74Q72.56 12.74 72.27 12.17L72.27 12.17L72.27 12.17Q71.44 12.77 70.21 12.77L70.21 12.77L70.21 12.77Q68.11 12.77 68.11 11.06L68.11 11.06L68.11 11.06Q68.11 10.70 68.37 10.40L68.37 10.40L68.37 10.40Q68.63 10.11 69.12 9.91L69.12 9.91L69.12 9.91Q69.61 9.72 70.04 9.60L70.04 9.60L70.04 9.60Q70.48 9.48 71.13 9.33L71.13 9.33L71.13 9.33Q71.78 9.18 72.06 9.10L72.06 9.10L72.06 9.10Q72.06 7.92 71.75 7.38L71.75 7.38L71.75 7.38Q71.44 6.83 70.66 6.83L70.66 6.83L70.66 6.83Q69.40 6.83 69.23 7.50ZM72.14 11.82L72.14 11.82L72.14 11.82Q72.06 11.51 72.06 11.06L72.06 11.06L72.06 9.41L72.06 9.41Q71.90 9.46 71.53 9.56L71.53 9.56L71.53 9.56Q71.16 9.66 70.93 9.73L70.93 9.73L70.93 9.73Q70.70 9.80 70.38 9.94L70.38 9.94L70.38 9.94Q70.06 10.08 69.87 10.22L69.87 10.22L69.87 10.22Q69.69 10.36 69.55 10.59L69.55 10.59L69.55 10.59Q69.41 10.82 69.41 11.09L69.41 11.09L69.41 11.09Q69.41 11.76 69.67 12.03L69.67 12.03L69.67 12.03Q69.93 12.29 70.45 12.29L70.45 12.29L70.45 12.29Q71.37 12.29 72.14 11.82ZM77.74 12.63L74.72 12.63L74.72 12.33L74.72 12.33Q75.47 12.33 75.60 12.05L75.60 12.05L75.60 4.80L75.60 4.80Q74.73 4.73 74.72 4.73L74.72 4.73L74.72 4.41L74.72 4.41Q74.98 4.41 75.76 4.11L75.76 4.11L75.76 4.11Q76.54 3.81 76.86 3.81L76.86 3.81L76.86 12.05L76.86 12.05Q76.99 12.33 77.74 12.33L77.74 12.33L77.74 12.63ZM85.04 12.63L81.98 12.63L81.98 12.33L81.98 12.33Q82.74 12.33 82.87 12.05L82.87 12.05L82.87 5.01L82.87 5.01Q82.74 4.73 81.98 4.73L81.98 4.73L81.98 4.44L85.15 4.44L85.15 4.44Q86.87 4.44 87.77 5.10L87.77 5.10L87.77 5.10Q88.68 5.75 88.68 6.57L88.68 6.57L88.68 6.57Q88.68 7.62 87.84 8.26L87.84 8.26L87.84 8.26Q87.00 8.90 85.32 8.90L85.32 8.90L84.15 8.90L84.15 12.05L84.15 12.05Q84.28 12.33 85.04 12.33L85.04 12.33L85.04 12.63ZM85.15 4.91L84.15 4.91L84.15 8.43L85.32 8.43L85.32 8.43Q86.39 8.43 86.84 8.00L86.84 8.00L86.84 8.00Q87.28 7.57 87.28 6.58L87.28 6.58L87.28 6.58Q87.28 4.91 85.15 4.91L85.15 4.91ZM90.38 7.50L90.38 7.50L90.38 7.50Q90.58 7.50 90.73 7.64L90.73 7.64L90.73 7.64Q90.87 7.78 90.87 8.08L90.87 8.08L90.87 8.08Q90.87 8.32 90.69 8.44L90.69 8.44L90.69 8.44Q90.50 8.57 90.24 8.57L90.24 8.57L90.24 8.57Q89.98 8.57 89.81 8.38L89.81 8.38L89.81 8.38Q89.64 8.19 89.64 7.87L89.64 7.87L89.64 7.87Q89.64 7.14 90.24 6.73L90.24 6.73L90.24 6.73Q90.85 6.33 91.95 6.33L91.95 6.33L91.95 6.33Q93.25 6.33 93.86 6.97L93.86 6.97L93.86 6.97Q94.47 7.62 94.47 8.68L94.47 8.68L94.47 11.45L94.47 11.45Q94.47 11.90 94.62 12.11L94.62 12.11L94.62 12.11Q94.77 12.32 94.98 12.32L94.98 12.32L94.98 12.32Q95.16 12.32 95.31 12.22L95.31 12.22L95.31 12.22Q95.45 12.12 95.45 11.98L95.45 11.98L95.70 11.98L95.70 11.98Q95.70 12.38 95.42 12.56L95.42 12.56L95.42 12.56Q95.13 12.74 94.42 12.74L94.42 12.74L94.42 12.74Q93.72 12.74 93.42 12.17L93.42 12.17L93.42 12.17Q92.60 12.77 91.36 12.77L91.36 12.77L91.36 12.77Q89.26 12.77 89.26 11.06L89.26 11.06L89.26 11.06Q89.26 10.70 89.52 10.40L89.52 10.40L89.52 10.40Q89.78 10.11 90.27 9.91L90.27 9.91L90.27 9.91Q90.76 9.72 91.20 9.60L91.20 9.60L91.20 9.60Q91.63 9.48 92.28 9.33L92.28 9.33L92.28 9.33Q92.93 9.18 93.21 9.10L93.21 9.10L93.21 9.10Q93.21 7.92 92.90 7.38L92.90 7.38L92.90 7.38Q92.60 6.83 91.81 6.83L91.81 6.83L91.81 6.83Q90.55 6.83 90.38 7.50ZM93.30 11.82L93.30 11.82L93.30 11.82Q93.21 11.51 93.21 11.06L93.21 11.06L93.21 9.41L93.21 9.41Q93.06 9.46 92.69 9.56L92.69 9.56L92.69 9.56Q92.32 9.66 92.09 9.73L92.09 9.73L92.09 9.73Q91.85 9.80 91.53 9.94L91.53 9.94L91.53 9.94Q91.21 10.08 91.03 10.22L91.03 10.22L91.03 10.22Q90.85 10.36 90.71 10.59L90.71 10.59L90.71 10.59Q90.57 10.82 90.57 11.09L90.57 11.09L90.57 11.09Q90.57 11.76 90.83 12.03L90.83 12.03L90.83 12.03Q91.08 12.29 91.60 12.29L91.60 12.29L91.60 12.29Q92.53 12.29 93.30 11.82ZM99.04 12.63L96.01 12.63L96.01 12.33L96.01 12.33Q96.77 12.33 96.89 12.05L96.89 12.05L96.89 7.32L96.89 7.32Q96.03 7.25 96.01 7.25L96.01 7.25L96.01 6.93L96.01 6.93Q96.28 6.93 97.06 6.63L97.06 6.63L97.06 6.63Q97.83 6.33 98.15 6.33L98.15 6.33L98.15 6.94L98.15 6.94Q98.85 6.33 99.54 6.33L99.54 6.33L99.54 6.33Q100.17 6.33 100.60 6.57L100.60 6.57L100.60 6.57Q101.02 6.80 101.02 7.10L101.02 7.10L101.02 7.10Q101.02 7.60 100.46 7.60L100.46 7.60L100.46 7.60Q100.17 7.60 99.93 7.20L99.93 7.20L99.93 7.20Q99.69 6.80 99.39 6.80L99.39 6.80L99.39 6.80Q98.84 6.80 98.15 7.41L98.15 7.41L98.15 12.05L98.15 12.05Q98.28 12.33 99.04 12.33L99.04 12.33L99.04 12.63ZM104.37 12.63L101.35 12.63L101.35 12.33L101.35 12.33Q102.10 12.33 102.23 12.05L102.23 12.05L102.23 4.80L102.23 4.80Q101.36 4.73 101.35 4.73L101.35 4.73L101.35 4.41L101.35 4.41Q101.61 4.41 102.39 4.11L102.39 4.11L102.39 4.11Q103.17 3.81 103.49 3.81L103.49 3.81L103.49 12.05L103.49 12.05Q103.61 12.33 104.37 12.33L104.37 12.33L104.37 12.63ZM108.12 12.63L105.39 12.63L105.39 12.33L105.39 12.33Q105.73 12.33 105.92 12.29L105.92 12.29L103.59 9.07L106.06 6.85L106.06 6.85Q105.85 6.76 105.38 6.76L105.38 6.76L105.38 6.47L107.58 6.47L107.58 6.76L107.58 6.76Q107.06 6.76 106.82 6.94L106.82 6.94L104.83 8.72L107.24 12.07L107.24 12.07Q107.44 12.33 108.12 12.33L108.12 12.33L108.12 12.63ZM110.96 12.35L110.96 12.35L110.96 12.35Q111.36 12.35 111.83 12.10L111.83 12.10L111.83 12.10Q112.29 11.84 112.29 11.34L112.29 11.34L112.29 11.34Q112.29 10.53 110.63 9.94L110.63 9.94L110.63 9.94Q110.22 9.80 109.96 9.67L109.96 9.67L109.96 9.67Q109.70 9.55 109.40 9.32L109.40 9.32L109.40 9.32Q109.09 9.10 108.93 8.78L108.93 8.78L108.93 8.78Q108.78 8.46 108.78 8.02L108.78 8.02L108.78 8.02Q108.78 7.24 109.35 6.78L109.35 6.78L109.35 6.78Q109.93 6.33 110.74 6.33L110.74 6.33L110.74 6.33Q111.22 6.33 111.71 6.54L111.71 6.54L111.71 6.54Q112.21 6.75 112.28 6.75L112.28 6.75L112.28 6.75Q112.45 6.75 112.45 6.47L112.45 6.47L112.77 6.47L112.77 8.15L112.46 8.15L112.46 8.15Q112.38 7.56 111.89 7.15L111.89 7.15L111.89 7.15Q111.41 6.75 110.78 6.75L110.78 6.75L110.78 6.75Q110.33 6.75 110.03 6.96L110.03 6.96L110.03 6.96Q109.73 7.17 109.73 7.53L109.73 7.53L109.73 7.53Q109.73 7.74 109.82 7.92L109.82 7.92L109.82 7.92Q109.90 8.09 109.98 8.20L109.98 8.20L109.98 8.20Q110.07 8.30 110.30 8.43L110.30 8.43L110.30 8.43Q110.53 8.55 110.65 8.60L110.65 8.60L110.65 8.60Q110.77 8.65 111.08 8.76L111.08 8.76L111.08 8.76Q111.40 8.88 111.51 8.92L111.51 8.92L111.51 8.92Q112.24 9.20 112.76 9.71L112.76 9.71L112.76 9.71Q113.27 10.22 113.27 10.89L113.27 10.89L113.27 10.89Q113.27 11.75 112.59 12.26L112.59 12.26L112.59 12.26Q111.90 12.77 110.85 12.77L110.85 12.77L110.85 12.77Q110.35 12.77 109.87 12.53L109.87 12.53L109.87 12.53Q109.40 12.29 109.34 12.29L109.34 12.29L109.34 12.29Q109.26 12.29 109.14 12.40L109.14 12.40L109.14 12.40Q109.03 12.52 109.03 12.63L109.03 12.63L108.70 12.63L108.70 10.65L109.00 10.65L109.00 10.65Q109.10 11.37 109.67 11.86L109.67 11.86L109.67 11.86Q110.24 12.35 110.96 12.35Z"></path></g><!----><g data-v-423bf9ae="" id="a2dc90b3-bc6e-4989-a73e-957bd6e3b63a" transform="matrix(1.0868111504448785,0,0,1.0868111504448785,-13.255261890115804,-0.23894260335429607)" stroke="none" fill="#F69800"><g clip-rule="evenodd"><path d="M12.983 10.59l17.018 88.223-5.872-59.049 29.021-1.892-.054-9.883L64.549 1 53.622 18.977z"></path><path d="M59.389 54.548l5.16-53.541-8.74 39.716-19.612 1.045 1.57 20.462-7.766 36.583 12.057-39.899z"></path><path d="M62.8 67.182l.549-10.453-15.979 3.755-.032 11.797-17.337 26.532 21.68-27.616zM65.711 62.394l14.841-4.731 1.509-12.532-15.899 2.095zM72.07 44.502l10.988-1.417 1.581-10.278-8.079-.373L64.549 1l8.43 30.967z"></path><path d="M87.413 31.294l1.256-9.506-9.544-2.694L64.549 1l14.483 22.437-.422 7z"></path></g></g><!----></svg>