<?xml version="1.0" encoding="UTF-8" standalone="no"?>
<svg
   xmlns:dc="http://purl.org/dc/elements/1.1/"
   xmlns:cc="http://creativecommons.org/ns#"
   xmlns:rdf="http://www.w3.org/1999/02/22-rdf-syntax-ns#"
   xmlns:svg="http://www.w3.org/2000/svg"
   xmlns="http://www.w3.org/2000/svg"
   xmlns:sodipodi="http://sodipodi.sourceforge.net/DTD/sodipodi-0.dtd"
   xmlns:inkscape="http://www.inkscape.org/namespaces/inkscape"
   inkscape:version="1.0 (4035a4fb49, 2020-05-01)"
   sodipodi:docname="border.svg"
   id="svg11"
   version="1.1"
   viewBox="0 0 1440 152">
  <metadata
     id="metadata17">
    <rdf:RDF>
      <cc:Work
         rdf:about="">
        <dc:format>image/svg+xml</dc:format>
        <dc:type
           rdf:resource="http://purl.org/dc/dcmitype/StillImage" />
      </cc:Work>
    </rdf:RDF>
  </metadata>
  <defs
     id="defs15" />
  <sodipodi:namedview
     inkscape:current-layer="svg11"
     inkscape:window-maximized="1"
     inkscape:window-y="-9"
     inkscape:window-x="-9"
     inkscape:cy="76"
     inkscape:cx="720"
     inkscape:zoom="0.9"
     showgrid="false"
     id="namedview13"
     inkscape:window-height="1001"
     inkscape:window-width="1920"
     inkscape:pageshadow="2"
     inkscape:pageopacity="0"
     guidetolerance="10"
     gridtolerance="10"
     objecttolerance="10"
     borderopacity="1"
     bordercolor="#666666"
     pagecolor="#ffffff" />
  <!-- Generator: sketchtool 52.6 (67491) - http://www.bohemiancoding.com/sketch -->
  <title
     id="title2">FFF00392-97C5-4043-A9D7-9CC443100B11</title>
  <desc
     id="desc4">Created with sketchtool.</desc>
  <g
     style="fill:#dcdcdc;fill-opacity:1"
     fill-rule="evenodd"
     fill="none"
     stroke-width="1"
     stroke="none"
     id="Page-1">
    <g
       style="fill:#dcdcdc;fill-opacity:1"
       fill="currentColor"
       transform="translate(0.000000, -868.000000)"
       id="Home">
      <g
         style="fill:#dcdcdc;fill-opacity:1"
         transform="translate(0.000000, 868.000000)"
         id="Transition">
        <g
           style="fill:#dcdcdc;fill-opacity:1"
           id="Background">
          <path
             style="fill:#dcdcdc;fill-opacity:1"
             id="yellow-bg-top"
             d="M1162.881,3.74026354 C1163.265,3.64026354 1163.489,2.69326354 1163.784,2.12026354 C1163.247,1.83126354 1162.71,1.54126354 1162.17,1.25226354 C1161.873,1.82726354 1161.579,2.40226354 1161.284,2.97626354 C1161.822,3.26226354 1162.419,3.86126354 1162.881,3.74026354 Z M1207.543,133.269264 C1213.392,131.180264 1217.417,131.396264 1222.547,131.564264 C1217.438,134.389264 1217.438,134.389264 1207.543,133.269264 Z M1192.323,133.862264 L1191.367,133.210264 L1192.463,132.821264 L1192.323,133.862264 Z M1180.038,133.964264 L1180.038,132.719264 C1180.455,133.134264 1180.872,133.549264 1181.288,133.964264 L1180.038,133.964264 Z M1156.283,133.336264 C1160.699,128.760264 1164.686,129.919264 1168.785,132.317264 C1165.102,135.963264 1161.255,136.025264 1156.283,133.336264 Z M1077.516,133.126264 C1087.962,131.439264 1096.47,130.524264 1105.022,132.918264 C1096.52,134.359264 1087.998,134.205264 1077.516,133.126264 Z M287.552,136.317264 C287.431,136.290264 287.416,135.660264 287.35,135.307264 C287.981,135.574264 288.61,135.840264 289.851,136.364264 C288.614,136.364264 288.068,136.430264 287.552,136.317264 Z M1425.782,9.88326354 C1423.063,6.23526354 1418.544,5.51326354 1414.037,6.36326354 C1411.515,6.84026354 1409.024,7.48026354 1406.516,8.04626354 L1406.632,7.91126354 C1406.484,7.89326354 1406.333,7.87426354 1406.184,7.85626354 C1406.281,7.91226354 1406.377,7.96926354 1406.475,8.02526354 C1402.68,10.8352635 1399.075,11.3022635 1395.11,7.85326354 C1393.343,6.31826354 1390.709,5.00526354 1388.447,4.97026354 C1383.336,4.89226354 1377.938,4.79426354 1373.151,6.28926354 C1363.704,9.24026354 1353.996,9.43826354 1344.368,10.6042635 C1344.36,10.6132635 1344.351,10.6202635 1344.343,10.6272635 C1338.639,6.11126354 1331.906,7.06626354 1326.041,8.90626354 C1314.166,12.6332635 1303.077,8.10426354 1291.668,7.14826354 C1290.195,7.02526354 1288.552,5.65126354 1287.495,4.42126354 C1283.921,0.25926354 1279.118,-0.21873646 1274.483,0.69726354 C1267.466,2.08226354 1259.97,1.44326354 1253.489,5.29526354 C1250.201,7.24826354 1246.806,6.13626354 1243.436,5.57226354 L1243.565,5.43026354 L1243.373,5.43026354 C1243.388,5.46526354 1243.403,5.50126354 1243.419,5.53526354 C1241.719,6.87126354 1240.022,6.81126354 1238.324,5.57026354 C1238.339,5.52326354 1238.354,5.47226354 1238.366,5.42526354 C1238.282,5.42526354 1238.199,5.42526354 1238.115,5.42426354 L1238.321,5.58226354 C1235.083,4.49026354 1231.883,3.26126354 1228.598,2.33226354 C1220.688,0.0942635398 1212.7,-1.99373646 1205.188,3.45526354 C1202.525,5.38626354 1199.675,5.27326354 1196.614,5.34526354 C1188.446,5.53926354 1180.236,5.68326354 1172.138,6.64126354 C1160.054,8.07126354 1148.268,8.37426354 1137.57,1.88226354 C1135.808,3.91526354 1134.442,5.49226354 1133.102,7.03726354 C1126.367,5.64526354 1119.837,5.00326354 1113.856,2.84426354 C1108.821,1.02426354 1103.936,-0.14573646 1098.765,0.58426354 C1090.733,1.71826354 1082.759,1.24926354 1074.725,0.73926354 C1059.395,-0.23273646 1044.106,2.64726354 1028.717,1.31226354 C1023.232,0.83726354 1017.563,1.81526354 1012.048,2.61726354 C1009.743,2.95326354 1007.61,4.46126354 1005.406,5.48326354 C1005.385,5.47126354 1005.366,5.46126354 1005.346,5.44826354 C1001.403,3.48626354 997.678,1.77126354 993.373,5.23226354 C991.591,6.66426354 988.688,7.09626354 986.249,7.24126354 C978.088,7.72526354 969.902,7.78126354 961.735,8.18726354 C957.02,8.42126354 952.098,10.1302635 947.66,9.23626354 C934.85,6.65526354 921.924,8.06626354 909.077,7.11626354 C909.344,5.94926354 909.587,4.88626354 909.936,3.36526354 C908.148,3.48926354 906.286,3.14426354 904.878,3.79126354 C895.605,8.04726354 886.35,10.5392635 876.645,5.07626354 C876.008,4.71726354 874.73,4.61326354 874.246,5.00426354 C870.444,8.08226354 867.171,6.24626354 863.51,4.51826354 C861.298,3.47426354 858.492,3.51526354 855.939,3.40126354 C845.285,2.92626354 834.635,5.68526354 823.945,3.37326354 C822.404,3.04026354 820.609,4.04026354 818.909,4.27126354 C804.548,6.22426354 790.173,7.99126354 775.655,5.92826354 C767.541,8.05326354 759.561,4.66826354 751.415,5.39826354 C744.401,6.02726354 737.31,3.13226354 730.181,6.05326354 C728.01,6.94226354 725.043,6.19726354 722.501,5.80826354 C714.868,4.63926354 707.269,3.24826354 699.646,2.01026354 C697.122,1.59926354 693.868,0.24026354 692.147,1.28826354 C685.467,5.35626354 678.684,2.30026354 671.986,2.61626354 C661.9,3.09226354 651.588,-0.88373646 641.678,4.38326354 C640.13,5.20526354 637.487,4.44026354 635.504,3.87326354 C629.506,2.16226354 623.295,1.50426354 617.894,4.58926354 C611.655,8.15226354 605.602,7.77226354 599.166,6.29426354 C594.949,5.32426354 590.662,4.33826354 586.514,6.44326354 C581.548,8.96426354 577.643,3.39526354 572.861,4.79726354 C571.621,5.16026354 570.378,5.58326354 569.107,5.75526354 C567.414,5.98326354 565.6,6.40026354 564.003,6.03126354 C554.267,3.77826354 545.382,6.52726354 536.546,10.1632635 C534.688,10.9272635 532.48,11.0062635 530.423,11.0702635 C528.324,11.1362635 525.931,10.0722635 524.153,10.7612635 C516.559,13.7072635 509.54,11.2542635 502.879,8.39626354 C497.976,6.29126354 493.182,5.08426354 487.944,5.01926354 C485.806,4.99326354 483.601,4.86726354 481.551,4.31826354 C474.214,2.35226354 467.1,2.83826354 459.978,5.40726354 C454.594,7.34726354 449.215,7.80226354 443.697,5.19826354 C441.568,4.19326354 438.746,4.12926354 436.323,4.39526354 C432.061,4.86326354 427.876,5.99026354 423.634,6.69526354 C421.108,7.11426354 417.981,8.32126354 416.083,7.33026354 C408.834,3.55026354 401.866,5.76226354 394.68,6.94826354 C391.344,7.50126354 387.826,6.84126354 384.399,6.96426354 C376.258,7.25526354 368.123,7.68426354 359.986,8.05826354 C351.547,13.4112635 342.628,10.9462635 333.797,9.62826354 C329.552,8.99426354 325.356,7.89726354 321.095,7.55026354 C312.141,6.81826354 303.121,6.78326354 294.2,5.80926354 C287.656,5.09626354 281.393,5.44626354 275.001,6.91226354 C269.994,8.06026354 264.479,9.81326354 259.745,8.77026354 C246.788,5.91726354 234.02,9.03926354 221.176,8.66926354 C210.909,8.37426354 200.583,10.5912635 190.289,10.5332635 C183.899,10.4982635 178.631,11.8982635 174.435,16.3012635 C171.339,15.2442635 168.941,14.3012635 166.47,13.6152635 C163.209,12.7102635 159.865,11.2582635 156.605,11.3722635 C149.707,11.6162635 142.909,11.4792635 136.061,10.5432635 C133.158,10.1462635 130.091,10.7972635 127.116,11.1282635 C122.85,11.6042635 118.576,12.0782635 114.352,12.8232635 C110.611,13.4832635 106.937,14.5112635 103.943,15.2112635 C97.639,13.8692635 91.83,12.4332635 85.942,11.4942635 C84.015,11.1862635 81.088,11.4682635 79.993,12.7022635 C76.759,16.3502635 74.54,15.4882635 71.464,12.5682635 C70.125,11.2962635 67.53,11.1042635 65.46,10.9052635 C62.036,10.5762635 58.575,10.5982635 55.13,10.5422635 C40.541,10.3022635 25.991,8.39926354 11.347,10.5982635 C7.637,11.1562635 3.822,10.9762635 -1.13686838e-13,10.7922635 L-1.13686838e-13,147.081264 C1.808,147.156264 3.606,147.134264 5.402,147.059264 C12.279,146.774264 19.146,145.916264 26.02,145.881264 C47.561,145.769264 69.105,145.852264 90.646,146.020264 C98.82,146.085264 106.99,146.704264 115.166,146.858264 C124.209,147.030264 133.259,147.116264 142.302,146.963264 C158.229,146.693264 174.151,146.165264 190.078,145.862264 C193.477,145.798264 196.629,146.512264 199.965,147.967264 C210.221,152.440264 221.116,152.752264 231.202,147.944264 C238.132,144.640264 245.076,143.510264 252.427,143.451264 C270.964,143.305264 289.503,143.385264 308.039,143.176264 C378.288,142.382264 448.559,143.906264 518.791,141.062264 C535.152,140.399264 551.551,140.763264 567.93,140.507264 C604.561,139.934264 641.188,138.943264 677.821,138.746264 C705.392,138.597264 732.967,139.545264 760.541,139.781264 C819.141,140.285264 877.742,140.909264 936.344,140.983264 C992.384,141.055264 1048.425,140.516264 1104.466,140.157264 C1108.298,140.132264 1112.502,140.201264 1115.848,138.696264 C1119.088,137.238264 1121.443,133.806264 1124.249,131.183264 C1128.487,131.183264 1132.79,131.044264 1137.069,131.297264 C1137.956,131.349264 1139.397,132.836264 1139.424,133.698264 C1139.453,134.596264 1138.264,135.907264 1137.286,136.392264 C1134.527,137.763264 1130.764,134.956264 1127.858,138.056264 C1128.643,138.756264 1128.949,139.266264 1129.258,139.268264 C1190.874,139.583264 1252.489,139.834264 1314.104,140.206264 C1317.949,140.229264 1321.786,141.204264 1325.632,141.701264 C1326.483,141.810264 1327.354,141.816264 1328.211,141.786264 C1329.07,141.755264 1329.928,141.639264 1330.781,141.519264 C1331.206,141.459264 1331.636,141.353264 1332.028,141.185264 C1332.417,141.016264 1332.849,140.814264 1333.101,140.498264 C1333.339,140.201264 1333.368,139.737264 1333.735,138.550264 C1321.349,136.614264 1308.968,137.290264 1296.684,136.972264 C1280.888,136.566264 1266.986,134.973264 1260.845,132.113264 C1269.193,130.961264 1277.52,129.561264 1285.854,132.393264 C1287.428,132.927264 1289.276,132.671264 1290.997,132.744264 C1312.05,133.644264 1333.173,132.515264 1354.175,135.015264 C1357.153,135.370264 1360.204,135.232264 1363.217,135.163264 C1371.138,134.982264 1371.138,134.948264 1377.906,128.438264 C1383.095,134.443264 1390.199,135.529264 1397.693,135.425264 C1401.995,135.366264 1406.303,135.232264 1410.602,135.341264 C1417.477,135.512264 1424.565,134.887264 1431.165,136.370264 C1434.152,137.041264 1437.087,137.138264 1440,136.997264 L1440,15.7012635 C1434.846,16.2322635 1429.917,15.4282635 1425.782,9.88326354 Z M1345.072,140.648264 C1353.768,143.021264 1362.325,143.059264 1373.828,142.274264 C1362.137,138.627264 1351.016,137.884264 1345.072,140.648264 Z M1240.043,1.28826354 C1239.462,1.36926354 1239.195,3.62826354 1238.8,5.00226354 C1240.466,5.00426354 1242.134,5.00626354 1243.801,5.00826354 C1243.008,3.26126354 1242.584,0.93426354 1240.043,1.28826354 Z M1403.124,6.26026354 C1402.944,6.57326354 1402.764,6.88626354 1402.584,7.19826354 C1403.835,7.30326354 1405.085,7.40726354 1406.335,7.51226354 C1405.264,7.09526354 1404.193,6.67826354 1403.124,6.26026354 Z" />
        </g>
      </g>
    </g>
  </g>
</svg>
